<svg xmlns="http://www.w3.org/2000/svg" height="681pt" viewBox="-69 -21 681 681.33348" width="681pt"><path d="m226.230469 482.613281c11.527343-11.519531-6.339844-29.390625-17.863281-17.863281-11.523438 11.519531 6.34375 29.386719 17.863281 17.863281 2.351562-2.347656-2.347657 2.351563 0 0zm0 0"></path><path d="m85.003906 92.75c-18.773437 20.234375-29.269531 44.019531-28.078125 63.621094 1 16.414062 26.207031 14.621094 25.222657-1.53125-.578126-9.464844 4.683593-26.90625 21.382812-44.90625 16.695312-18.003906 33.695312-24.550782 43.175781-24.6875 16.21875-.234375 15.882813-25.449219-.363281-25.265625-19.640625.285156-42.570312 12.53125-61.339844 32.769531zm0 0"></path><path d="m59.570312 68.4375c24.023438-25.898438 54.171876-42.84375 76.800782-43.167969 16.210937-.234375 15.902344-25.429687-.363282-25.269531-29.648437.429688-66.039062 20.0625-94.96875 51.253906-28.925781 31.183594-45.78125 68.941406-43.984374 98.539063 1 16.410156 26.203124 14.625 25.222656-1.53125-1.375-22.59375 13.265625-53.929688 37.292968-79.824219zm0 0"></path><path d="m528.113281 613.488281h-48.226562l-122.761719-231.089843c21.554688-15.875 35.574219-41.417969 35.574219-70.179688 0-26.554688-11.953125-50.351562-30.742188-66.351562 14.269531-41.457032 14.109375-86.632813-.613281-128.140626-9.679688-27.273437-25.023438-51.546874-45.617188-72.136718-4.871093-4.871094-12.992187-4.871094-17.867187 0l-119.980469 119.976562-28.25-27.242187c-11.675781-11.261719-29.234375 6.914062-17.539062 18.191406l27.917968 26.921875-118.445312 118.449219c-4.9375 4.933593-4.9375 12.933593 0 17.867187 20.589844 20.59375 44.863281 35.941406 72.132812 45.613282 20.976563 7.441406 42.96875 11.160156 64.957032 11.160156 20.070312 0 40.132812-3.097656 59.410156-9.289063 4.65625 5.703125 10.019531 10.804688 15.957031 15.175781l-21.570312 40.691407c-7.507813 14.164062 14.726562 26.164062 22.324219 11.832031l21.550781-40.652344c9.148437 3.269532 18.984375 5.0625 29.238281 5.0625 10.265625 0 20.113281-1.792968 29.265625-5.066406l99.035156 186.429688-115.691406-88.765626v-34.375c0-16.222656-25.269531-16.246093-25.269531 0v34.199219l-122.425782 89.761719 31.355469-55.992188c3.40625-6.085937 1.238281-13.789062-4.851562-17.199218-6.085938-3.40625-13.785157-1.230469-17.195313 4.855468l-56.15625 100.285157h-40.664062c-16.222656 0-16.246094 25.269531 0 25.269531h445.152344c16.21875.003906 16.238281-25.261719-.003907-25.261719zm-405.972656-271.933593c-19.734375-6.996094-37.664063-17.425782-53.453125-31.054688l237.777344-237.785156c13.636718 15.789062 24.058594 33.722656 31.0625 53.460937 12.15625 34.273438 12.894531 71.417969 2.320312 105.949219-10.527344-4.527344-22.113281-7.039062-34.289062-7.039062-48.039063 0-87.132813 39.085937-87.132813 87.128906 0 11.539062 2.273438 22.546875 6.363281 32.636718-33.585937 9.523438-69.570312 8.441407-102.648437-3.296874zm121.554687-29.335938c0-34.113281 27.753907-61.867188 61.867188-61.867188s61.867188 27.753907 61.867188 61.867188-27.753907 61.867188-61.867188 61.867188-61.867188-27.753907-61.867188-61.867188zm61.667969 201.75 129.703125 99.519531h-265.4375zm0 0"></path><path d="m305.5625 271.761719c-22.308594 0-40.457031 18.148437-40.457031 40.457031 0 22.304688 18.148437 40.453125 40.457031 40.453125 22.304688 0 40.453125-18.148437 40.453125-40.453125 0-22.308594-18.148437-40.457031-40.453125-40.457031zm0 55.640625c-8.375 0-15.183594-6.8125-15.183594-15.183594s6.808594-15.191406 15.183594-15.191406 15.1875 6.816406 15.1875 15.191406c0 8.371094-6.8125 15.183594-15.1875 15.183594zm0 0"></path></svg>